<svg id="tape_twelve_logo" data-name="Layer 1" xmlns="http://www.w3.org/2000/svg" viewBox="0 0 792 482"><defs><style>.cls-1{fill:rgb(188, 188, 188);}</style></defs><title>logo</title><path class="cls-1" d="M462.9,187.26a75.42,75.42,0,0,0-3.65-23.19L530.59,40.53H240.91l25.39,44a37.67,37.67,0,1,0,12.5-6.74l-13.3-23H506L452,148.2a75.72,75.72,0,1,0-84.11,112.3l17.83,30.89,17.38-30.11A75.85,75.85,0,0,0,462.9,187.26Zm-75.73-37.87a37.87,37.87,0,1,1-37.87,37.87A37.91,37.91,0,0,1,387.17,149.39ZM385.73,263h0l0,0Z"/><path class="cls-1" d="M387.17,201.46a14.2,14.2,0,1,0-14.2-14.2A14.22,14.22,0,0,0,387.17,201.46Z"/><polygon class="cls-1" points="108.38 318.68 52.53 318.68 52.53 332.3 72.86 332.3 72.86 394.63 88.27 394.63 88.27 332.3 108.38 332.3 108.38 318.68"/><path class="cls-1" d="M124.68,318.68l-17.09,75.95H123l3-13.74h26.58l3,13.74H171l-17.09-75.95Zm4.24,48.81,7.71-36.08H142l7.71,36.08Z"/><path class="cls-1" d="M209.12,318.68H181.2v75.95h15.42V372.51h12.51q13.29,0,20.16-7.1T236.15,345Q236.15,318.68,209.12,318.68ZM209,359.33h-12.4V331.85H209q5.92,0,8.71,3.07t2.79,10.1Q220.51,359.34,209,359.33Z"/><polygon class="cls-1" points="246.98 394.63 296.13 394.63 296.13 381.22 262.4 381.22 262.4 363.02 289.42 363.02 289.42 349.83 262.4 349.83 262.4 332.08 296.13 332.08 296.13 318.68 246.98 318.68 246.98 394.63"/><polygon class="cls-1" points="326.62 332.3 346.94 332.3 346.94 394.63 362.36 394.63 362.36 332.3 382.46 332.3 382.46 318.68 326.62 318.68 326.62 332.3"/><polygon class="cls-1" points="460.09 381.45 458.41 381.45 444.79 318.68 426.92 318.68 413.29 381.45 411.62 381.45 402.23 318.68 386.04 318.68 400.56 394.63 423.9 394.63 435.85 336.88 447.81 394.63 471.15 394.63 485.67 318.68 469.47 318.68 460.09 381.45"/><polygon class="cls-1" points="496.05 394.63 545.2 394.63 545.2 381.22 511.47 381.22 511.47 363.02 538.5 363.02 538.5 349.83 511.47 349.83 511.47 332.08 545.2 332.08 545.2 318.68 496.05 318.68 496.05 394.63"/><polygon class="cls-1" points="573.34 318.68 557.93 318.68 557.93 394.63 601.15 394.63 601.15 381 573.34 381 573.34 318.68"/><polygon class="cls-1" points="632.43 381.22 627.41 381.22 614.22 318.68 598.03 318.68 615.67 394.63 644.16 394.63 661.81 318.68 645.61 318.68 632.43 381.22"/><polygon class="cls-1" points="721 332.08 721 318.68 671.86 318.68 671.86 394.63 721 394.63 721 381.22 687.27 381.22 687.27 363.02 714.3 363.02 714.3 349.83 687.27 349.83 687.27 332.08 721 332.08"/></svg>