<svg id="Layer_1" data-name="Layer 1" xmlns="http://www.w3.org/2000/svg" viewBox="0 0 1057 291"><defs><style>.cls-1{fill:#231f20;}</style></defs><title>logo</title><path class="cls-1" d="M180,48.41V83.08H132V222H97.33V83.08H49V48.41Z"/><path class="cls-1" d="M272.4,48.41l82,173.59H316L266.46,116.51,212.72,222H173.84l88.4-173.59Z"/><path class="cls-1" d="M429.88,48.41a52.13,52.13,0,0,1,0,104.25H408.34V222H373.67V48.41Zm0,69.58a17.39,17.39,0,0,0,17.33-17.33,17.6,17.6,0,0,0-17.33-17.58H408.34V118Z"/><path class="cls-1" d="M624.76,83.08H509.11V48.41H624.76ZM509.11,115.27h95.83v34.67H509.11Zm0,72.06H624V222H509.11Z"/><path class="cls-1" d="M844.08,187.09V222H762.37V187.09h24.76V83.58H762.37V48.66H822V187.09Z"/><path class="cls-1" d="M932.09,112a20.22,20.22,0,1,1,20.22-20.22A20.24,20.24,0,0,1,932.09,112Zm0-37.33A17.11,17.11,0,1,0,949.2,91.77,17.13,17.13,0,0,0,932.09,74.66Z"/><path class="cls-1" d="M920.59,193.52s54.73-74.29,57.2-80a52.26,52.26,0,0,0,3.93-18.32c.08-1.14.13-2.29.13-3.45a49.77,49.77,0,1,0-58.58,49l-1.16,1.71.2.06-5.08,7.07c-4.86,7-8.31,11.86-8.31,11.86l-.11-.15L865.13,222H986.22V193.52ZM885.43,91.77a46.5,46.5,0,0,1,1.95-13.32l26.39,8.06a18.24,18.24,0,0,1,17-11.86,17.91,17.91,0,0,1,17.83,17.83c0,1.55.1,4.69.1,4.69-1.15,6.39-13,25.13-23.48,40.74A46.73,46.73,0,0,1,885.43,91.77Z"/></svg>