<svg id="Layer_1" data-name="Layer 1" xmlns="http://www.w3.org/2000/svg" viewBox="0 0 1057 291"><defs><style>.cls-1{fill:#fff;}</style></defs><title>logo</title><path class="cls-1" d="M194,62.41V97.08H146V236H111.33V97.08H63V62.41Z"/><path class="cls-1" d="M286.4,62.41l82,173.59H330L280.46,130.51,226.72,236H187.84l88.4-173.59Z"/><path class="cls-1" d="M443.88,62.41a52.13,52.13,0,0,1,0,104.25H422.34V236H387.67V62.41Zm0,69.58a17.39,17.39,0,0,0,17.33-17.33,17.6,17.6,0,0,0-17.33-17.58H422.34V132Z"/><path class="cls-1" d="M638.76,97.08H523.11V62.41H638.76ZM523.11,129.27h95.83v34.67H523.11Zm0,72.06H638V236H523.11Z"/><path class="cls-1" d="M858.08,201.09V236H776.37V201.09h24.76V97.58H776.37V62.66H836V201.09Z"/><path class="cls-1" d="M946.09,126a20.22,20.22,0,1,1,20.22-20.22A20.24,20.24,0,0,1,946.09,126Zm0-37.33a17.11,17.11,0,1,0,17.11,17.11A17.13,17.13,0,0,0,946.09,88.66Z"/><path class="cls-1" d="M934.59,207.52s54.73-74.29,57.2-80a52.26,52.26,0,0,0,3.93-18.32c.08-1.14.13-2.29.13-3.45a49.77,49.77,0,1,0-58.58,49l-1.16,1.71.2.06-5.08,7.07c-4.86,7-8.31,11.86-8.31,11.86l-.11-.15L879.13,236h121.09V207.52ZM899.43,105.77a46.5,46.5,0,0,1,1.95-13.32l26.39,8.06a18.24,18.24,0,0,1,17-11.86,17.91,17.91,0,0,1,17.83,17.83c0,1.55.1,4.69.1,4.69-1.15,6.39-13,25.13-23.48,40.74A46.73,46.73,0,0,1,899.43,105.77Z"/></svg>